<svg xmlns="http://www.w3.org/2000/svg" width="299.803" height="190.481" viewBox="0 0 299.803 190.481"><defs><style>.a{fill:#fff;}.b{fill:#fcdc4a;}.c{fill:#211715;}</style></defs><path class="a" d="M32.366,103.045C32.355,74.086,32.34,35.7,32.331,11.2a8.672,8.672,0,0,1,8.677-8.678l190.065-.065a8.68,8.68,0,0,1,8.685,8.681c0,32.87.014,86.256.027,120.267,6.866,9.648,21.6,29.953,28.8,42.253a7.96,7.96,0,0,1,1.086,4.031c0,1.255-.027,2.774-.027,4.343a6.027,6.027,0,0,1-6.026,6.019H7.5a5.024,5.024,0,0,1-5.025-5.023c0-7.75-.029,2.275-.029-5.328a8.012,8.012,0,0,1,1.089-4.048c7.282-12.434,22.071-33.379,28.84-42.882C32.374,123.76,32.371,114.088,32.366,103.045Z"></path><path class="a" d="M167.14,43.071c2.366,16.359,5.432,37.556,7.817,54.041a5.506,5.506,0,0,0,6.242,4.662c18.951-2.742,59.307-8.574,79.123-11.443a5.5,5.5,0,0,0,4.662-6.241c-2.391-16.479-5.455-37.674-7.817-54.038a5.5,5.5,0,0,0-6.238-4.663c-16.62,2.4-60.609,8.764-79.126,11.443A5.5,5.5,0,0,0,167.14,43.071Z"></path><path class="b" d="M225.54,137.292a5.246,5.246,0,0,1,4.307,2.25c3.267,4.665,6.779,9.821,9.9,14.848a2.528,2.528,0,0,1-2.141,3.87H34.513a2.526,2.526,0,0,1-2.156-3.85c3.129-5.039,6.651-10.21,9.925-14.888a5.238,5.238,0,0,1,4.3-2.235c37.474,0,141.487,0,178.962,0"></path><path class="c" d="M227.775,140.753c2.053,2.935,4.083,5.886,6.06,8.873q1.443,2.178,2.843,4.384c.261.412.939,1.253,1.052,1.549.077.2.014.3-.142.334-.064.016-.6-.033-.774-.033h-201c-.41,0-.917,0-1.287.009-.016,0-.174-.277-.142,0-.046-.392.522-1,.8-1.447,1.956-3.1,3.987-6.156,6.056-9.183q1.444-2.112,2.912-4.209c.223-.319.587-1.149.936-1.32a2.788,2.788,0,0,1,.975-.02H80.571l62.468,0h71.143c3.089,0,3.094-4.8,0-4.8H47.974c-2.213,0-4.663-.286-6.343,1.488a34.015,34.015,0,0,0-2.941,4.117q-1.615,2.333-3.2,4.687-1.473,2.19-2.91,4.4c-.95,1.469-2.31,3.057-2.8,4.762a5,5,0,0,0,4.752,6.314c1.483.056,2.978,0,4.463,0h196.35c.647,0,1.294.007,1.941,0a5.031,5.031,0,0,0,5.249-4.807c.018-1.65-.859-2.923-1.71-4.265q-1.4-2.208-2.842-4.385c-1.977-2.986-4.007-5.938-6.06-8.872a2.464,2.464,0,0,0-3.284-.861,2.419,2.419,0,0,0-.861,3.283Z"></path><path class="c" d="M225.683,94.824q.014,15.725.01,31.45l2.4-2.4q-13.456,0-26.912.005l-39.877.013-44.441.015-41.088.016-29.264.01H44.073l2.4,2.4q-.007-14.785-.014-29.57-.014-28.3-.026-56.607-.006-13.1-.01-26.193l-2.4,2.4,28.617-.01,45.5-.015,49.57-.016,40.821-.013,13.125,0c2.02,0,4.092.133,6.108,0,.092-.006.185,0,.277,0l-2.4-2.4q0,7.485.01,14.97c0,3.089,4.8,3.094,4.8,0q0-7.485-.01-14.97a2.435,2.435,0,0,0-2.4-2.4l-15.821.005-38.917.013-49.2.016-46.663.015-31.205.01H44.023a2.435,2.435,0,0,0-2.4,2.4q.008,25.7.021,51.409l.024,50.5q0,5.229.005,10.457a2.434,2.434,0,0,0,2.4,2.4l27.345-.01,40.1-.015,44.454-.016,40.891-.013q14.428,0,28.857-.006h2.373a2.435,2.435,0,0,0,2.4-2.4q0-15.725-.01-31.45c0-3.088-4.8-3.094-4.8,0Z"></path><path class="c" d="M237.373,93.134q0,16.3.009,32.607,0,1.653,0,3.306c0,1.27-.206,2.654.475,3.775.809,1.333,1.838,2.575,2.744,3.843q3.414,4.775,6.808,9.561c5,7.067,9.953,14.172,14.646,21.446q1.565,2.425,3.073,4.886c1.1,1.805,2.139,3.366,2.143,5.555,0,1.873.466,4.424-.708,6.038a3.849,3.849,0,0,1-3.317,1.5c-6.791.036-13.583,0-20.375,0H10.711a14.864,14.864,0,0,1-3.964-.109c-2.5-.753-1.78-3.661-1.879-5.659a2.41,2.41,0,0,0-2.081-2.357,2.369,2.369,0,0,0-2.633,1.719c-.075.513-.057.987-.1,1.5h4.8c-.041-.557,0-1.131,0-1.689a9,9,0,0,1,1.3-5.113c1.659-2.787,3.393-5.529,5.153-8.253,4.059-6.278,8.268-12.459,12.526-18.6q2.92-4.215,5.876-8.408,1.317-1.869,2.64-3.735a18.556,18.556,0,0,0,2.221-3.244,7.158,7.158,0,0,0,.207-2.672v-2.808q0-2.9,0-5.795,0-6.848-.006-13.694-.02-25.187-.018-50.374,0-12.372-.008-24.746,0-5.593,0-11.187,0-2.595,0-5.191a40.192,40.192,0,0,1,.032-4.835,6.366,6.366,0,0,1,5.516-5.443,53.2,53.2,0,0,1,5.9-.031l13.733,0,34.579-.011,40.42-.015,40.952-.015,36.314-.015,14.8-.006c2.261,0,4.9-.388,6.969.688a6.382,6.382,0,0,1,2.882,3.03c.713,1.6.534,3.356.534,5.063V27.174c0,3.089,4.8,3.094,4.8,0V14.8c0-3.455.167-6.852-1.885-9.834A11.145,11.145,0,0,0,232.8.208a44.4,44.4,0,0,0-6.537-.152l-27.82.012L128.852.1,63.178.117l-12.536,0A99.522,99.522,0,0,0,39.923.192a11.244,11.244,0,0,0-8.109,4.839c-1.875,2.728-1.881,5.779-1.88,8.951q0,9.545.007,19.089.014,44.22.031,88.438,0,4.633,0,9.265l.327-1.211c-9.43,13.254-18.931,26.548-27.389,40.453C1.564,172.23.3,174.34.087,176.994a24.974,24.974,0,0,0-.03,3.751,2.4,2.4,0,0,0,4.8,0c.029-.363.113-1.516-.075-.221l-4.714-.638c.148,2.974-.217,5.734,1.953,8.146,1.9,2.115,4.444,2.422,7.1,2.422H260.662a18.489,18.489,0,0,0,5.361-.35,8.615,8.615,0,0,0,4.777-3.676c1.241-2,1.234-4.164,1.255-6.439.026-2.691-.057-5.133-1.4-7.546-.847-1.521-1.794-3-2.719-4.469-2.078-3.31-4.234-6.569-6.421-9.807-4.611-6.828-9.368-13.556-14.152-20.263q-2.752-3.856-5.508-7.711l.328,1.211q0-19.135-.01-38.27c0-3.088-4.8-3.094-4.8,0Z"></path><path class="c" d="M248.839,171.922H31.059c-2.946,0-5.9-.059-8.846,0-.127,0-.255,0-.382,0-3.088,0-3.093,4.8,0,4.8h217.78c2.947,0,5.9.06,8.847,0,.127,0,.254,0,.381,0,3.089,0,3.094-4.8,0-4.8Z"></path><path class="c" d="M165.077,43.814q2.682,18.545,5.365,37.089Q171.1,85.45,171.757,90l.645,4.454a24.436,24.436,0,0,0,.693,4.126,7.936,7.936,0,0,0,5.955,5.3c2.179.412,4.506-.206,6.675-.52l59.04-8.536,12.916-1.869c2.357-.341,4.633-.514,6.57-2.063a7.988,7.988,0,0,0,2.8-7.54c-1.718-12.325-3.569-24.633-5.349-36.949q-.671-4.638-1.34-9.275l-.582-4.034a26.9,26.9,0,0,0-.746-4.5,7.953,7.953,0,0,0-5.79-5.268c-1.968-.43-4,.076-5.958.36l-24.9,3.6-29.73,4.3-13.059,1.888-5.554.8c-2.231.322-4.325.535-6.161,2a7.814,7.814,0,0,0-2.883,6.9,2.473,2.473,0,0,0,2.4,2.4,2.415,2.415,0,0,0,2.4-2.4,3.268,3.268,0,0,1,2.877-3.892c1.595-.275,3.21-.465,4.811-.7l11.535-1.669,27.855-4.028,25.656-3.71,5.148-.745,2.15-.311a8.652,8.652,0,0,1,1.966-.2c2.274.207,2.745,2.2,3.019,4.091q.609,4.225,1.22,8.449Q258.6,58.238,261.17,76.01c.395,2.731.932,5.481,1.192,8.228a3.229,3.229,0,0,1-2.905,3.642c-3.8.674-7.654,1.107-11.471,1.66l-57.045,8.248-5.964.862c-1.6.232-3.534.8-4.975.533-2.237-.418-2.473-2.562-2.743-4.432q-.618-4.262-1.234-8.524-2.585-17.873-5.17-35.744l-1.15-7.945a2.414,2.414,0,0,0-2.952-1.676A2.463,2.463,0,0,0,165.077,43.814Z"></path><path class="c" d="M175.521,49.365Q191.1,59.582,207.065,69.2q1.8,1.08,3.6,2.15a25.727,25.727,0,0,0,4.239,2.372,5.474,5.474,0,0,0,4.285-.3,14.559,14.559,0,0,0,3.479-3.227q6.8-7.193,13.336-14.623,7.525-8.511,14.818-17.225a2.467,2.467,0,0,0,0-3.395,2.421,2.421,0,0,0-3.394,0c-8.2,9.755-16.549,19.385-25.223,28.72q-1.54,1.658-3.094,3.3-.73.773-1.464,1.541c-.308.322-.569.77-1.057.724-.4-.038-.941-.516-1.268-.708q-.837-.492-1.673-.987-1.893-1.12-3.78-2.253-7.734-4.641-15.368-9.441-8.333-5.229-16.559-10.621c-2.59-1.7-5,2.455-2.422,4.145Z"></path><path class="c" d="M296.777,38.367l-22.035,3.2-3.182.461a2.415,2.415,0,0,0-1.676,2.952,2.463,2.463,0,0,0,2.952,1.677l22.035-3.195L298.053,43a2.416,2.416,0,0,0,1.677-2.952,2.464,2.464,0,0,0-2.953-1.677Z"></path><path class="c" d="M290.1,52.832l-14.557,2.11-2.067.3a2.415,2.415,0,0,0-1.676,2.952,2.462,2.462,0,0,0,2.952,1.676l14.557-2.11,2.067-.3a2.415,2.415,0,0,0,1.676-2.952,2.461,2.461,0,0,0-2.952-1.676Z"></path><path class="c" d="M283.79,67.243l-7.353,1.066-1.044.151a2.4,2.4,0,0,0-1.435,1.1,2.456,2.456,0,0,0-.242,1.85,2.429,2.429,0,0,0,1.1,1.434,2.809,2.809,0,0,0,1.85.242l7.353-1.066,1.044-.151a2.4,2.4,0,0,0,1.434-1.1,2.4,2.4,0,0,0-.861-3.284,2.806,2.806,0,0,0-1.849-.242Z"></path></svg>