<?xml version="1.0" encoding="UTF-8"?><svg id="b" xmlns="http://www.w3.org/2000/svg" width="216.793" height="259.436" viewBox="0 0 216.793 259.436"><defs><style>.d{fill:none;}.d,.e,.f,.g,.h,.i{stroke-width:0px;}.e{fill:#fff;}.f{fill:#3d8dcc;}.g{fill:#febe69;}.h{fill:#211715;}.i{fill:#645d5c;}</style></defs><g id="c"><path class="f" d="M214.382,257.036c-1.63-14.36-3.37-28.66-5.39-43.01-2.82-20.06-4.03-43.23-18.1-59.2-12.355-14.006-32.795-19-49.474-25.326.35.975.487,2.051.237,2.969-4.065,17.39-9.162,35.661-14.612,52.398-4.398,13.507-5.846,18.091-11.473,31.976h-1.815c-5.627-13.885-7.075-18.469-11.473-31.976-3.228-9.913-6.325-20.365-9.164-30.852-.573.405-1.171.779-1.815,1.089-4.384,2.11-10.512,1.667-14.997-1.335-1.974-1.321-3.595-2.872-5.222-4.592-.863-.913-3.901-5.563-4.427-7.533l-.578-1.429s.002,0,.002-.001c-.897.444-1.827.888-2.852,1.37.106,1.978.726,3.875,1.174,5.8.418,1.793.685,3.677.247,5.466-.525,2.141-2.252,4.126-4.612,4.045.36,1.913.77,3.863.606,5.811-.152,1.798-.857,3.625-2.269,4.748-.55.437-1.187.754-1.844,1.002-2.167.818-4.631.894-6.801.083-.854-.319-1.653-.768-2.434-1.238-3.8-2.285-7.268-5.121-10.263-8.391-.699-.763-1.409-1.64-1.458-2.668-.001-.022-.002-.043-.002-.065-.006-.277.049-.544.126-.807-6.368-.264-9.611,5.18-9.611,5.18-9.485,15.296-16.722,31.984-21.405,49.363-2.456,9.113-4.058,19.424.806,27.512,4.874,8.104,15.462,11.635,24.752,9.87,7.71-1.464,14.501-6.018,19.861-11.826-.002,7.383-.002,14.756-.002,21.566h164.28Z"/><path class="e" d="M155.808,67.621c1.321-1.27,3.101-1.746,4.624-1.693,3.315.117,4.725,1.91,5.332,2.962,1.812,3.142,1.735,8.932.519,12.514-.861,2.537-2.272,6.418-5.673,9.201-1.401,1.147-3.464,1.902-5.436,1.569l-.522-.088c-.626,2.068-1.398,4.093-1.87,5.077-1.372,3.723-8.907,16.712-18.472,21.916v1.196c-.795.643-16.991,13.414-18.219,14.284h-2.853c-1.228-.87-17.425-13.641-18.219-14.284v-1.52c-3.851-2.122-7.366-5.236-10.731-9.264-4.899-5.864-7.689-12.18-9.23-17.414-2.102.542-4.374-.239-5.882-1.473-3.401-2.783-4.812-6.664-5.673-9.201-1.216-3.582-1.293-9.372.519-12.514.607-1.053,2.017-2.845,5.332-2.962,1.523-.054,3.303.423,4.624,1.693,0,0-11.084-45.262,40.916-45.262s40.916,45.262,40.916,45.262Z"/><path class="h" d="M148.234,134.52c8.868,3.112,17.848,6.106,26.132,10.609,8.15,4.431,15.114,10.36,19.878,18.397,4.7,7.929,7.163,16.925,8.839,25.924,1.734,9.315,2.707,18.766,4.004,28.147,1.814,13.122,3.4,26.275,4.895,39.437.146,1.288.998,2.4,2.4,2.4,1.184,0,2.547-1.104,2.4-2.4-1.377-12.118-2.838-24.227-4.466-36.314-1.34-9.946-2.449-19.955-4.125-29.851-1.602-9.459-3.984-18.906-8.495-27.435-4.597-8.692-11.472-15.615-19.851-20.699-9.42-5.715-19.993-9.217-30.335-12.846-1.223-.429-2.626.488-2.952,1.676-.364,1.324.449,2.522,1.676,2.952h0Z"/><path class="h" d="M52.502,257.036c0-5.63,0-11.26,0-16.89,0-1.297-1.103-2.4-2.4-2.4s-2.4,1.098-2.4,2.4c0,5.63,0,11.26,0,16.89,0,1.297,1.103,2.4,2.4,2.4s2.4-1.098,2.4-2.4h0Z"/><path class="h" d="M171.172,194.956c0,15.273.053,30.547.099,45.82.016,5.42.034,10.84.051,16.26.01,3.088,4.81,3.094,4.8,0-.056-17.289-.113-34.578-.14-51.867-.005-3.404-.01-6.809-.01-10.213,0-3.089-4.8-3.094-4.8,0h0Z"/><path class="i" d="M89.445,53.232c-3.373,3.029-6.581,6.282-8.93,8.898l-6.54,5.491c-1.321-1.27-3.101-1.746-4.624-1.693-.761.027-1.422.142-1.995.316-1.552-5.676-2.21-11.297-2.004-16.174.825-19.522,11.136-31.584,20.241-38.355,7.842-5.832,17.64-9.311,29.18-9.311,12.056,0,21.415,3.713,29.429,9.487,9.424,6.803,19.179,18.825,19.996,38.18.234,5.549-.418,10.073-1.95,16.122-.531-.145-1.134-.241-1.817-.265-1.523-.054-3.303.423-4.624,1.693l-6.49-5.142c-2.096-5.273-6.827-11.098-11.762-15.344-2.88-2.478-4.871-3.572-7.488-4.709l-8.13-.999c-5.483,2.31-13.215,7.162-17.554,9.573-1.035.575-2.254-.338-2.116-1.594.091-.827.092-1.701-.187-2.852-.289-1.191-1.204-1.697-1.917-1.323-3.17,1.663-7.042,4.7-10.719,8.001Z"/><path class="h" d="M143.279,8.352c-14.689-9.534-33.848-10.982-49.882-3.949-13.005,5.704-23.372,17.333-27.816,30.775-3.319,10.041-3.343,20.771-.735,30.969.765,2.991,5.395,1.723,4.629-1.276-3.833-14.99-1.064-31.314,9.067-43.275,4.114-4.857,8.768-8.704,14.339-11.634,7.139-3.755,15.208-5.329,23.238-5.142,8.884.207,17.292,2.844,24.737,7.676,2.599,1.687,5.007-2.467,2.423-4.145h0Z"/><path class="h" d="M164.733,66.147c2.061-8.424,2.462-16.835.755-25.368-1.389-6.945-4.23-13.658-8.407-19.389-2.056-2.821-4.368-5.429-6.952-7.777-2.282-2.074-5.686,1.311-3.394,3.394,9.806,8.912,14.939,21.4,15.106,34.596.057,4.517-.667,8.892-1.737,13.268-.734,3,3.894,4.28,4.629,1.276h0Z"/><path class="h" d="M128.857,44.498c4.093,1.792,7.419,4.446,10.506,7.655,3.047,3.169,6.007,6.934,7.641,10.964.487,1.2,1.598,2.048,2.952,1.676,1.138-.313,2.166-1.744,1.676-2.952-1.954-4.821-5.068-9.068-8.633-12.829-3.389-3.575-7.188-6.675-11.72-8.659-1.186-.52-2.576-.348-3.284.861-.595,1.018-.333,2.761.861,3.284h0Z"/><path class="h" d="M82.213,63.827c4.882-5.421,10.281-10.755,16.358-14.831.621-.417,1.253-.818,1.9-1.193.161-.093.391-.165.521-.294.371-.369.007.056.029-.05l-1.231-.296-.023-.029c-.048.175.08.365.106.543.13.903-.109,1.802.076,2.699.216,1.049.809,2.002,1.73,2.579,1.887,1.183,3.604.307,5.316-.676,1.586-.91,3.16-1.841,4.742-2.76,3.714-2.157,7.457-4.333,11.414-6.021,1.192-.509,1.457-2.265.861-3.284-.722-1.234-2.086-1.372-3.284-.861-3.54,1.51-6.904,3.42-10.234,5.338-1.652.952-3.293,1.92-4.942,2.877-.629.365-1.258.728-1.891,1.085-.035.02-.445.202-.487.272l1.042-.031.418.515c.124-.06.091-.798.09-.968-.013-2.102-.599-4.564-2.734-5.445-1.899-.783-3.596.404-5.149,1.399-3.18,2.037-6.12,4.479-8.93,6.993-3.185,2.849-6.23,5.866-9.09,9.042-2.062,2.29,1.322,5.695,3.394,3.394h0Z"/><path class="h" d="M107.137,102.451c2.553,1.348,5.301,1.92,8.188,1.902,2.981-.019,5.944-.626,8.325-2.482.995-.775.875-2.591,0-3.394-1.055-.969-2.332-.827-3.394,0,.744-.58.234-.183.042-.061-.161.103-.327.199-.497.288-.224.117-.779.249-.107.074-.231.06-.457.176-.685.249-.626.201-1.268.334-1.917.437.358-.057.127-.018-.099.005-.188.019-.376.034-.565.046-.454.029-.908.041-1.362.038-.407-.002-.814-.016-1.22-.044-.186-.013-.373-.028-.559-.046-.084-.008-.766-.128-.186-.018-.604-.114-1.201-.221-1.79-.397-.251-.075-.495-.165-.743-.25-.585-.2.429.213-.1-.037-.307-.145-.61-.296-.91-.454-1.11-.586-2.66-.318-3.284.861-.586,1.109-.324,2.658.861,3.284h0Z"/><path class="h" d="M113.962,83.347c.35,1.335.686,2.691.887,4.057l-.086-.638c.024.187.034.372.015.56l.086-.638c-.013.087-.032.169-.062.252l.242-.573c-.026.059-.053.109-.089.162l.375-.486c-.042.051-.081.09-.133.131l.486-.375c-.103.066-.211.119-.321.17l.573-.242c-.177.074-.352.128-.542.158l.638-.086c-.171.02-.338.019-.508,0l.638.086c-.192-.027-.38-.073-.572-.099-.319-.1-.638-.114-.957-.043-.319.014-.617.109-.892.285-.498.291-.973.862-1.103,1.434-.14.614-.11,1.304.242,1.849.312.484.835,1.022,1.434,1.103.465.063.916.18,1.389.201.74.032,1.423-.197,2.082-.501.822-.378,1.466-1.135,1.684-2.019.186-.751.108-1.386-.019-2.139-.221-1.307-.523-2.602-.859-3.885-.152-.579-.588-1.133-1.103-1.434s-1.273-.429-1.849-.242c-1.25.404-2.018,1.651-1.676,2.952h0Z"/><path class="h" d="M92.732,71.772c-.678,2.202-.236,7.267,3.935,7.698,5.513-.033,5.807-6.157,3.951-9.036-1.519-2.357-5.988-3.338-7.886,1.338Z"/><path class="h" d="M137.052,71.772c.678,2.202.236,7.267-3.935,7.698-5.513-.033-5.807-6.157-3.951-9.036,1.519-2.357,5.987-3.338,7.886,1.338Z"/><path class="h" d="M75.673,65.924c-2.79-2.503-6.794-3.089-10.204-1.502-2.464,1.148-3.949,3.466-4.638,6.028-1.614,6.004-.082,12.974,3.337,18.098,2.316,3.471,5.983,6.616,10.442,6.026,1.285-.17,2.4-.981,2.4-2.4,0-1.165-1.106-2.571-2.4-2.4-3.33.441-5.589-2.25-7.066-4.915-1.287-2.321-2.244-5.001-2.456-7.655-.197-2.471-.188-5.532,1.342-7.627.095-.132.076-.106-.055.078.1-.115.204-.227.313-.333.047-.042.531-.427.305-.268.496-.349,1.019-.538,1.614-.648,1.302-.241,2.671.015,3.671.912,2.294,2.057,5.699-1.326,3.394-3.394h0Z"/><path class="h" d="M157.505,69.319c.953-.855,2.239-1.128,3.491-.95.65.093,1.257.308,1.794.686-.146-.102.829.86.506.444,1.605,2.064,1.597,5.236,1.399,7.707-.207,2.598-1.132,5.212-2.37,7.496-1.472,2.717-3.759,5.522-7.152,5.073-1.287-.17-2.4,1.225-2.4,2.4,0,1.438,1.109,2.229,2.4,2.4,7.305.967,11.8-7.073,13.565-12.979,1.564-5.23,1.546-13.307-3.526-16.686-3.407-2.27-8.14-1.642-11.102,1.015-2.304,2.067,1.099,5.452,3.394,3.394h0Z"/><path class="h" d="M153.11,88.445c-.613,2.97-1.768,5.888-2.773,8.416-.135.34.234-.486-.007.008-.082.169-.156.342-.237.511-.201.423-.413.841-.632,1.255-.503.956-1.042,1.893-1.603,2.815-2.94,4.828-6.523,9.387-10.911,12.981-2.39,1.957-5.08,3.496-8.055,4.187-3.008.698-1.735,5.328,1.276,4.629,6.26-1.454,11.478-6.003,15.569-10.758,3.392-3.942,6.55-8.372,8.707-13.127.156-.343.302-.692.446-1.04.042-.101.249-.6.109-.273-.145.341.012-.015.037-.07.138-.305.265-.617.393-.926.175-.422.344-.847.504-1.275.739-1.971,1.379-3.992,1.805-6.056.622-3.015-4.003-4.304-4.629-1.276h0Z"/><path class="h" d="M71.929,89.575c1.865,8.215,5.721,15.891,11.219,22.273,5.319,6.173,12.173,11.078,20.379,12.299,1.28.19,2.58-.32,2.952-1.676.311-1.132-.386-2.76-1.676-2.952-7.492-1.114-13.404-5.427-18.261-11.064-4.962-5.759-8.307-12.761-9.985-20.155-.684-3.011-5.312-1.737-4.629,1.276h0Z"/><path class="e" d="M113.756,216.843c-5.627-13.885-7.075-18.469-11.473-31.976-5.45-16.738-10.547-35.008-14.612-52.398-.441-1.623.324-3.738,1.343-4.918,1.829-2.119,4.134-5.183,6.004-7.275.795.643,16.991,13.414,18.219,14.284h2.853c1.228-.87,17.425-13.641,18.219-14.284,1.87,2.092,4.175,5.156,6.004,7.275,1.019,1.18,1.783,3.295,1.343,4.918-4.065,17.39-9.162,35.661-14.612,52.398-4.398,13.507-5.846,18.091-11.473,31.976h-1.815Z"/><path class="g" d="M108.865,204.327c1.299,3.514,2.809,7.378,4.891,12.516h1.815c5.18-12.782,6.818-17.682,10.478-28.918-1.774-15.214-4.121-33.306-4.121-33.839,0-.958.218-1.906.436-2.842.109-.425.207-.849.294-1.274.468-2.113.554-3.194,1.099-5.433l.034-.109c-2.613-3.523-5.773-7.701-7.699-9.867h-2.853c-1.909,2.148-5.032,6.273-7.633,9.777.148.414.243.684.243.684.726,1.513.925,3.016,1.336,4.344.513,1.637,1.026,3.32,1.055,5.033.015.895-2.455,18.05-4.744,34.189,2.071,6.354,3.503,10.685,5.371,15.74Z"/><path class="h" d="M101.932,216.23c-10.14-17.577-20.164-35.235-29.509-53.251-.314-.605-.627-1.211-.939-1.817-.262-.508-.834-1.248-.928-1.809-.022-.13-.411.469.241-.255.425-.471.87-.926,1.31-1.382,2.099-2.172,4.29-4.253,6.493-6.319,1.124-1.055.825-3.021-.486-3.769-1.29-.737-2.581-1.473-3.871-2.21-.573-.327-1.147-.655-1.72-.982-.358-.205-.717-.409-1.075-.614-.143-.082-.287-.164-.43-.246-.291-.189-.29-.16.003.088l.328,1.211c-.012.281-.031.095.094-.063.139-.177.232-.412.349-.605.204-.337.423-.664.649-.987.474-.675,1.007-1.304,1.556-1.92,1.413-1.586,2.962-3.05,4.561-4.446,2.91-2.539,6.016-4.855,9.262-6.944l-3.526-1.434c5.502,24.387,12.42,48.516,20.683,72.113,1.993,5.692,4.202,11.302,6.465,16.891.486,1.201,1.599,2.048,2.952,1.676,1.139-.313,2.166-1.744,1.676-2.952-8.865-21.895-15.861-44.579-21.868-67.413-1.885-7.166-3.649-14.363-5.28-21.591-.333-1.474-2.261-2.248-3.526-1.434-4.997,3.216-9.867,6.928-13.968,11.243-1.793,1.886-4.34,4.476-4.821,7.14-.437,2.425,1.741,3.431,3.491,4.43,1.864,1.064,3.728,2.128,5.592,3.192l-.486-3.769c-2.029,1.903-4.047,3.818-5.993,5.806-1.762,1.8-4.087,3.771-3.355,6.585.309,1.188,1.026,2.307,1.585,3.393.627,1.217,1.258,2.431,1.892,3.645,1.215,2.326,2.443,4.646,3.68,6.96,5.127,9.594,10.418,19.1,15.784,28.562,2.975,5.245,5.975,10.476,8.989,15.699,1.543,2.675,5.693.261,4.145-2.423h0Z"/><path class="h" d="M131.539,218.652c10.738-18.614,21.477-37.29,31.172-56.475.662-1.309,1.142-2.589.73-4.063-.393-1.407-1.519-2.428-2.496-3.449-2.2-2.296-4.505-4.488-6.824-6.663l-.486,3.769c1.864-1.064,3.728-2.128,5.592-3.192,1.685-.962,3.674-1.833,3.534-4.111-.088-1.439-1.165-2.912-1.999-4.045-.882-1.198-1.839-2.336-2.864-3.414-4.101-4.315-8.97-8.027-13.968-11.243-1.265-.814-3.193-.039-3.526,1.434-5.502,24.387-12.42,48.516-20.683,72.113-1.993,5.692-4.202,11.302-6.465,16.891-.487,1.202.53,2.637,1.676,2.952,1.372.377,2.464-.47,2.952-1.676,8.865-21.895,15.861-44.579,21.868-67.413,1.885-7.166,3.649-14.363,5.28-21.591l-3.526,1.434c3.247,2.09,6.353,4.406,9.262,6.944,1.557,1.358,3.063,2.782,4.446,4.318.556.617,1.1,1.248,1.583,1.924.231.323.453.652.662.989.122.197.227.415.357.607.093.137.177.562.161.183l.328-1.211c.192-.37.169-.161-.212.035-.365.188-.718.41-1.075.614-.645.368-1.29.737-1.936,1.105-1.29.737-2.581,1.473-3.871,2.21-1.311.748-1.61,2.715-.486,3.769,1.912,1.794,3.816,3.599,5.658,5.465.391.397.78.795,1.166,1.198.324.338,1.169.952,1.302,1.387.036.12.008-.361-.081-.093-.207.62-.629,1.227-.928,1.809-2.292,4.449-4.631,8.874-7.003,13.281-4.861,9.031-9.858,17.989-14.922,26.907-2.823,4.971-5.667,9.929-8.524,14.88-1.546,2.681,2.6,5.101,4.145,2.423h0Z"/><path class="h" d="M121.305,150.041c-4.221-.002-8.442-.088-12.664-.09-1.255,0-2.458,1.104-2.4,2.4s1.055,2.399,2.4,2.4c4.221.002,8.442.088,12.664.09,1.255,0,2.458-1.104,2.4-2.4s-1.055-2.4-2.4-2.4h0Z"/><path class="h" d="M121.441,143.899c-.393,1.654-.655,3.332-1.004,4.995-.357,1.703-.974,3.48-.908,5.239.043,1.146.266,2.308.407,3.444.737,5.974,1.491,11.945,2.222,17.92.509,4.159,1.01,8.319,1.496,12.48.15,1.287.995,2.4,2.4,2.4,1.181,0,2.551-1.104,2.4-2.4-.825-7.067-1.694-14.13-2.572-21.191-.51-4.103-1.199-8.227-1.523-12.35-.092-1.164.267-2.276.521-3.403.439-1.945.728-3.918,1.189-5.858.714-3.003-3.914-4.285-4.629-1.276h0Z"/><path class="h" d="M105.921,188.433c1.258-8.865,2.537-17.727,3.762-26.597.318-2.305.719-4.62.914-6.94.123-1.46-.19-2.96-.564-4.365-.6-2.254-1.155-4.59-2.114-6.721-.532-1.182-2.25-1.466-3.284-.861-1.216.711-1.395,2.097-.861,3.284.432.96.618,2.018.886,3.03.267,1.006.615,1.988.861,3,.233.958.359,1.872.252,2.844-.265,2.394-.506,3.913-.851,6.404-1.187,8.552-2.417,17.098-3.631,25.646-.182,1.282.314,2.578,1.676,2.952,1.125.309,2.769-.385,2.952-1.676h0Z"/><path class="h" d="M93.32,118.579c-1.135,1.281-2.205,2.617-3.277,3.95-1.118,1.391-2.379,2.724-3.396,4.19-1.593,2.295-2.042,5.41-.609,7.864,2.372,4.062,5.153,7.955,8.135,11.587,1.781,2.17,3.713,4.303,6.076,5.855,1.172.769,2.54.132,3.284-.861,3.742-4.997,7.263-10.22,11.401-14.906,1.093-1.237.818-2.835-.486-3.769-.141-.101-.278-.206-.416-.311-.167-.126-.982-.756-.369-.281-.718-.555-1.433-1.113-2.149-1.671-1.989-1.553-3.973-3.111-5.957-4.671-2.951-2.32-5.921-4.619-8.843-6.975-1.008-.813-2.409-.985-3.394,0-.841.841-1.014,2.576,0,3.394,2.991,2.412,6.031,4.764,9.051,7.139,3.199,2.515,6.345,5.15,9.654,7.521l-.486-3.769c-4.407,4.991-8.165,10.554-12.151,15.877l3.284-.861c-.893-.586-1.753-1.392-2.723-2.402-1.049-1.092-2.028-2.25-2.972-3.433-1.775-2.226-3.405-4.576-4.962-6.959-.553-.847-1.098-1.701-1.619-2.569-.157-.262-.351-.529-.471-.81-.111-.258.037-.013.048.078-.034-.264-.034-.532.007-.801.255-1.637,1.692-2.869,2.684-4.099,1.333-1.651,2.642-3.323,4.05-4.912,2.042-2.305-1.341-5.712-3.394-3.394Z"/><path class="h" d="M132.612,121.973c1.407,1.589,2.717,3.261,4.05,4.912.99,1.226,2.429,2.464,2.684,4.099.041.261.046.525.017.785.001-.013.159-.343.039-.062s-.314.548-.471.81c-.521.868-1.066,1.721-1.619,2.569-1.557,2.383-3.186,4.733-4.962,6.959-.944,1.183-1.923,2.341-2.972,3.433-.97,1.01-1.83,1.815-2.723,2.402l3.284.861c-3.986-5.324-7.744-10.886-12.151-15.877l-.486,3.769c3.309-2.371,6.455-5.006,9.654-7.521,3.02-2.374,6.06-4.727,9.051-7.139,1.01-.814.848-2.546,0-3.394-.998-.998-2.382-.816-3.394,0-2.922,2.356-5.892,4.655-8.843,6.975-1.984,1.559-3.968,3.118-5.957,4.671-.715.558-1.431,1.116-2.149,1.671.613-.474-.202.155-.369.281-.138.104-.276.21-.416.311-1.304.934-1.578,2.532-.486,3.769,4.137,4.686,7.659,9.908,11.401,14.906.745.995,2.1,1.638,3.284.861,4.372-2.87,7.608-7.574,10.547-11.8,1.186-1.705,2.339-3.439,3.411-5.219,1.395-2.316,1.399-4.775.242-7.243-.777-1.657-2.21-3.016-3.349-4.431-1.289-1.599-2.559-3.215-3.922-4.753-2.052-2.317-5.437,1.088-3.394,3.394Z"/><path class="d" d="M35.063,159.162c8.45-12.84,24.51-18.63,43.04-25.82"/><path class="h" d="M74.782,133.426c3.759-.292,7.52-.557,11.28-.83,1.249-.091,2.461-1.039,2.4-2.4-.055-1.222-1.059-2.497-2.4-2.4-3.76.273-7.521.538-11.28.83-1.249.097-2.461,1.034-2.4,2.4.055,1.217,1.06,2.504,2.4,2.4h0Z"/><path class="e" d="M35.578,156.242c-.001-.022-.002-.043-.002-.065-.018-.871.45-1.669.903-2.414,1.66-2.73,1.672-2.75,4.977-8.184-2.378-7.22-4.755-14.439-7.133-21.659-1.009-3.065-.712-9.827,1.62-12.729,2.302-2.866,4.98-5.137,7.938-6.978,4.079-2.54,8.689-4.263,13.578-5.608,1.072-.295,2.816-.605,3.874-.261,1.75.568,3.029,1.625,3.514,3.321s.226,3.528-.332,5.202l-.241.84c.802-.14,1.639-.188,2.256-.012,1.769.507,3.084,1.518,3.628,3.197s.349,3.518-.15,5.21l-.625,1.893c.224.008.435.041.624.095,1.717.492,2.993,1.474,3.521,3.102s.339,3.414-.145,5.057c0,0-.217,1.005-.441,2.047,1.348.53,1.887,1.884,2.024,2.706.489,2.934-.815,4.457-3.067,5.917-3.08,1.997-5.425,3.138-8.666,4.663.106,1.978.726,3.875,1.174,5.8.418,1.793.685,3.677.247,5.466-.525,2.141-2.252,4.126-4.612,4.046.36,1.913.77,3.863.606,5.811-.152,1.798-.857,3.625-2.269,4.748-.55.437-1.187.754-1.844,1.002-2.167.818-4.631.894-6.801.083-.854-.319-1.653-.768-2.434-1.238-3.8-2.285-7.268-5.121-10.263-8.391-.699-.763-1.409-1.64-1.458-2.668Z"/><path class="e" d="M41.885,95.704c.492,1.156,3.064,6.397,3.868,7.32l.056.078c3.583-1.944,7.515-3.358,11.65-4.496,1.072-.295,2.816-.605,3.874-.261.024.008.047.018.071.026l.896-.451,2.289-1.723c2.668-2.474,3.68-3.997,3.895-5.416.387-2.551.079-3.546-1.038-5.944-1.094-2.348-3.116-5.513-4.38-7.666-.555-.946-1.121-1.905-1.875-2.663-.95-.956-2.147-1.537-3.351-1.951-4.651-1.599-9.857-.808-13.543,2.367-3.686,3.175-5.655,8.744-4.695,14.056.422,2.337,1.358,4.545,2.284,6.724Z"/><path class="e" d="M98.437,139.785c-.394-.994-1.047-1.896-1.692-2.783-1.468-2.019-3.641-5.08-5.312-6.878-1.801-1.938-2.541-2.555-5.034-3.219-1.387-.37-3.152-.359-6.486,1.098l-2.258,1.145-2.711,1.764c.006.03.015.064.02.093.489,2.934-.815,4.457-3.068,5.917-2.108,1.367-3.875,2.332-5.816,3.294l.578,1.429c.526,1.969,3.564,6.62,4.427,7.533,1.627,1.72,3.249,3.271,5.222,4.592,4.485,3.003,10.613,3.445,14.997,1.335s7.19-6.565,7.583-11.468c.102-1.27.047-2.599-.449-3.851Z"/><path class="h" d="M24.018,159.339c-5.523,8.931-10.266,18.31-14.243,28.028-1.976,4.829-3.748,9.742-5.31,14.721-1.492,4.756-2.899,9.583-3.743,14.503-1.57,9.156-1.002,19.269,5.952,26.198,6.041,6.02,15.059,8.241,23.343,6.968,10.387-1.596,19.051-8.679,25.271-16.792.789-1.029.159-2.687-.861-3.284-1.237-.723-2.492-.171-3.284.861-4.93,6.43-11.673,11.935-19.623,14.007-6.89,1.795-14.964.544-20.445-4.217-6.428-5.585-7.087-14.344-5.76-22.259,1.552-9.258,4.729-18.402,8.158-27.114,3.995-10.152,8.951-19.92,14.688-29.197,1.629-2.635-2.521-5.048-4.145-2.423h0Z"/><path class="h" d="M42.669,102.142c-3.4,2.145-6.862,4.884-9.111,8.268-1.767,2.659-2.213,6.321-2.182,9.438.038,3.787,1.458,7.217,2.628,10.768,1.484,4.505,2.967,9.009,4.451,13.514.962,2.921,5.599,1.67,4.629-1.276-1.33-4.039-2.66-8.077-3.99-12.116l-1.995-6.058c-.461-1.4-.814-2.566-.89-3.869-.144-2.486.032-5.481,1.279-7.626.795-1.369,2.091-2.54,3.246-3.605,1.349-1.243,2.809-2.317,4.359-3.295,2.606-1.644.2-5.799-2.423-4.145h0Z"/><path class="h" d="M66.828,107.506c.911-2.864,1.083-6.281-.835-8.783-1.678-2.189-4.381-3.171-7.077-2.826-2.784.356-5.545,1.357-8.159,2.348-2.805,1.063-5.532,2.323-8.088,3.896-2.626,1.617-.218,5.77,2.423,4.145,3.923-2.415,8.213-4.032,12.638-5.264,1.59-.443,3-.745,4.168.273.242.211.353.353.503.666.095.198.252.688.294,1.078.115,1.084-.17,2.171-.495,3.192-.939,2.951,3.694,4.213,4.629,1.276h0Z"/><path class="h" d="M72.321,116.741c.837-2.988.897-6.486-1.228-8.969-1.93-2.255-4.807-2.867-7.618-2.354-2.702.494-5.386,1.667-7.906,2.726-2.837,1.192-5.599,2.548-8.166,4.253s-.16,5.86,2.423,4.145c3.925-2.607,8.299-4.46,12.769-5.909,1.694-.549,3.159-1.059,4.534-.052.488.357.78.931.903,1.677.178,1.083-.048,2.167-.339,3.206-.834,2.979,3.795,4.251,4.629,1.276h0Z"/><path class="h" d="M75.695,126.888c.823-2.93.855-6.298-1.186-8.746-1.773-2.126-4.525-2.806-7.164-2.383-2.471.396-4.956,1.394-7.272,2.317-2.526,1.006-4.94,2.197-7.205,3.704-1.078.717-1.542,2.119-.861,3.284.626,1.07,2.2,1.582,3.284.861,3.552-2.363,7.383-3.824,11.438-5.082.87-.27,1.6-.463,2.397-.46.419.001-.406-.135.242.023.082.02.588.194.488.154.09.037.755.428.801.467.149.124.287.289.43.545.096.172.008-.068.125.261.075.209.146.463.183.676.177,1.042-.047,2.104-.328,3.105-.837,2.979,3.793,4.25,4.629,1.276h0Z"/><path class="h" d="M60.858,141.988c.15,1.505.459,2.962.832,4.425.337,1.322.703,2.72.768,3.844.018.321.025.642.013.963-.006.183-.018.365-.036.547.028-.185.016-.126-.036.176-.069.3-.151.589-.245.882-.099.261-.101.267-.007.021-.046.097-.095.193-.148.286-.12.219-.25.434-.4.634.301-.403-.262.237-.328.306-.209.179-.211.185-.004.018-.114.08-.232.154-.353.222-.248.123-.246.13.005.023-.132.05-.266.092-.402.127-1.206.345-2.078,1.71-1.676,2.952.397,1.227,1.659,2.046,2.952,1.676,3.36-.962,5.181-4.142,5.454-7.459.141-1.72-.19-3.486-.59-5.153-.183-.762-.388-1.518-.573-2.28-.097-.402-.19-.806-.27-1.212-.044-.225-.087-.451-.12-.678-.074-.499.053.562-.034-.319-.124-1.245-1.015-2.462-2.4-2.4-1.194.053-2.533,1.062-2.4,2.4h0Z"/><path class="h" d="M36.995,148.295c-1.077,1.77-2.353,3.533-3.217,5.416-1.126,2.455-.388,4.64,1.293,6.598,2.939,3.424,6.644,6.356,10.467,8.728,2.093,1.299,4.24,2.278,6.728,2.447,2.287.155,4.846-.377,6.804-1.599,4.63-2.892,4.251-8.509,3.368-13.186-.241-1.274-1.776-1.999-2.952-1.676-1.336.367-1.918,1.674-1.676,2.952.514,2.722,1.287,6.805-1.914,8.166-3.341,1.421-6.241-.11-9.019-1.943-2.758-1.821-5.282-3.963-7.559-6.358-.361-.38-1.16-1.001-1.291-1.538-.135-.555.499-1.284.768-1.728.78-1.287,1.564-2.571,2.346-3.857,1.609-2.646-2.54-5.061-4.145-2.423h0Z"/><path class="h" d="M65.911,142.961c2.617-1.255,5.228-2.592,7.617-4.249,2.241-1.554,3.885-3.611,3.937-6.449.049-2.676-1.235-5.304-3.848-6.267-1.881-.694-4.309-.349-6.205.1-2.927.693-5.689,2.121-8.258,3.65-1.079.642-1.567,2.188-.861,3.284.7,1.086,2.129,1.548,3.284.861,1.113-.662,2.247-1.292,3.417-1.848.238-.113.478-.223.719-.33.1-.044.2-.088.3-.131-.408.173-.07.031.012,0,.459-.173.916-.349,1.383-.499.813-.26,1.633-.433,2.47-.588.264-.049-.264.034-.259.035.061.016.223-.025.297-.032.169-.016.338-.028.508-.037.348-.018.696-.022,1.044-.009.178.006.357.015.535.031-.584-.054.379.147.047.026-.297-.108.009.026.044.033.115.026.365.313-.06-.081.061.056.122.115.185.168.385.332.021-.059-.007-.057.068-.005.237.387.281.46.283.479-.073-.334.008.019.032.14.076.287.116.425.016.055.059.306.02.067-.048-.289.021.319.021.32.011.223-.033.468-.006.685.031.254.023-.134.034-.182-.025.115-.042.231-.07.345-.023.094-.224.697-.094.357.117-.306-.155.255-.224.376-.282.494.202-.175-.079.12-.141.148-.276.299-.424.44-.155.147-.321.278-.48.419.416-.372-.256.176-.375.256-2.359,1.591-4.89,2.908-7.452,4.136-1.135.544-1.524,2.256-.861,3.284.752,1.166,2.07,1.443,3.284.861h0Z"/><path class="h" d="M47.45,101.327c.541.661-.046-.117-.156-.297-.207-.339-.4-.686-.591-1.033-.506-.921-.985-1.856-1.454-2.796-.819-1.642-1.583-3.299-2.226-5.02-1.789-4.785-1.796-10.231,1.701-14.296,3.159-3.671,8.558-4.686,12.98-2.832,2.46,1.031,3.516,3.712,4.812,5.867,1.273,2.116,2.763,4.324,3.501,6.701,1.18,3.804-2.124,6.117-4.928,8.228-1.034.778-1.569,2.073-.861,3.284.596,1.019,2.242,1.645,3.284.861,3.738-2.814,7.52-5.879,7.53-10.963.006-3.158-1.795-6.132-3.338-8.78-.725-1.245-1.482-2.47-2.22-3.707-.911-1.528-1.797-3.118-3.193-4.263-5.082-4.163-13.47-3.744-18.594.077-5.306,3.957-7.559,10.842-6.409,17.26.563,3.142,1.946,6.169,3.335,9.026,1.003,2.064,1.971,4.29,3.434,6.077.822,1.004,2.542.852,3.394,0,.993-.993.824-2.388,0-3.394h0Z"/><path class="h" d="M64.343,142.282c.667,2.281,2.066,4.426,3.385,6.379,1.555,2.303,3.516,4.25,5.705,5.96,5.276,4.12,12.533,5.535,18.759,2.706,5.626-2.556,9.317-8.829,9.134-14.975-.107-3.596-2.208-6.181-4.245-8.949-1.754-2.384-3.538-4.964-5.871-6.824-2.31-1.842-5.351-2.591-8.249-2.082-2.331.409-4.43,1.519-6.517,2.577-2.756,1.397-.329,5.54,2.423,4.145,1.344-.681,2.629-1.372,4.087-1.794.886-.256,1.333-.334,2.203-.317.708.014-.43-.113.217.02.131.027.259.059.389.091.554.136,1.143.31,1.609.541,1.678.834,3.141,2.873,4.356,4.447.801,1.039,1.569,2.105,2.339,3.168.786,1.085,1.761,2.191,2.208,3.468.734,2.099.047,4.868-.874,6.809-.953,2.007-2.428,3.732-4.346,4.867-4.29,2.538-9.941,1.694-13.9-1.072-1.254-.877-2.378-1.932-3.453-3.017-.41-.413-.821-.826-1.193-1.274.344.414.027.031-.05-.08-.167-.241-.34-.479-.505-.722-.629-.924-1.223-1.874-1.777-2.845-.295-.516-.58-1.039-.84-1.575-.274-.565-.177-.296-.361-.928-.866-2.959-5.499-1.7-4.629,1.276h0Z"/><path class="h" d="M86.173,159.217c.785.719,1.279,1.548,1.43,2.614.036.258.034.796-.028,1.09-.015.071-.336.789-.434.692-.208-.207,1.198.056.746-.156.179.084.327.291.384.481.111.373-.085.787-.421.982-.15.088-.486.03-.572.072-.016.008-.109-.105-.093-.119.03-.027.075.393.09.502.107.752.094,1.543.068,2.3-.046,1.305-.181,2.609-.51,3.873.014-.081.052-.148.114-.201.118-.138.096-.119-.067.057.193-.129.217-.146.073-.051-.088.061-.181.116-.277.164.534-.28-.257.129-.224.037.066-.183.662.05.73.087.421.23.813.899.438,1.385l-.872.545c-.17-.134-.29-.147-.36-.04.03-.052.087.313.051.167.07.287.164.565.202.86.11.862.002,2.142-.224,3.128-.289,1.262.388,2.598,1.676,2.952,1.21.333,2.662-.407,2.952-1.676.492-2.148.708-4.701-.075-6.812-.919-2.478-3.702-4.394-6.262-2.815-2.326,1.434-2.308,5.06.05,6.45,1.833,1.081,4.268.337,5.654-1.133,1.583-1.678,1.625-4.616,1.722-6.785.111-2.479.005-5.52-2.349-6.968-2.261-1.391-5.517-.408-6.159,2.3-.618,2.608,1.458,5.071,4.117,5.009,2.847-.066,4.522-2.945,4.663-5.492s-.959-5.167-2.841-6.892c-.955-.876-2.45-.945-3.394,0-.888.888-.959,2.515,0,3.394h0Z"/></g></svg>